<?xml version="1.0" standalone="no"?>
<!DOCTYPE svg PUBLIC "-//W3C//DTD SVG 20010904//EN"
 "http://www.w3.org/TR/2001/REC-SVG-20010904/DTD/svg10.dtd">
<svg version="1.0" xmlns="http://www.w3.org/2000/svg"
 width="260.000000pt" height="260.000000pt" viewBox="0 0 260.000000 260.000000"
 preserveAspectRatio="xMidYMid meet">
<metadata>
Created by potrace 1.14, written by Peter Selinger 2001-2017
</metadata>
<g transform="translate(0.000000,260.000000) scale(0.100000,-0.100000)"
fill="#000000" stroke="none">
<path d="M1238 2285 c-2 -1 -30 -6 -63 -10 -84 -9 -230 -60 -293 -101 -52 -34
-140 -121 -189 -186 -65 -86 -91 -173 -87 -283 4 -103 10 -125 49 -180 114
-162 250 -238 498 -280 135 -23 304 -72 362 -105 243 -139 208 -447 -62 -541
-49 -17 -73 -19 -153 -14 -217 14 -384 79 -500 196 -59 59 -110 72 -176 44
-68 -28 -84 -139 -31 -209 15 -18 59 -58 99 -89 265 -199 644 -272 883 -170
61 26 181 109 229 159 47 48 109 157 122 214 4 19 10 42 12 50 2 8 6 54 8 101
3 85 -10 153 -47 234 -18 41 -123 169 -163 200 -89 68 -356 161 -551 192 -119
18 -243 78 -289 137 -68 90 3 236 151 310 119 59 167 71 283 70 84 0 125 -6
205 -29 128 -36 172 -41 217 -22 85 36 98 148 26 213 -12 12 -45 29 -73 37
-27 9 -81 27 -120 41 -63 23 -84 26 -207 25 -75 -1 -138 -2 -140 -4z"/>
</g>
</svg>
